<svg data-v-423bf9ae="" xmlns="http://www.w3.org/2000/svg" viewBox="0 0 359.2098652966354 163" class="iconAbove"><!----><!----><!----><g data-v-423bf9ae="" id="68adcfe9-6162-401b-9c46-7fc130f62e50" fill="#041F57" transform="matrix(5.267779035574817,0,0,5.267779035574817,-6.953473830966317,87.723438863947)"><path d="M2.37 3.12C2.37 2.95 2.31 2.90 2.16 2.90L1.53 2.90C1.37 2.90 1.32 2.95 1.32 3.12L1.32 13.01C1.32 13.17 1.37 13.23 1.53 13.23L1.86 13.23C1.99 13.23 2.03 13.17 2.10 13.01L2.21 11.70C2.55 12.24 3.30 13.38 4.96 13.38C6.92 13.38 8.19 11.69 8.19 9.66C8.19 7.62 6.92 5.95 4.96 5.95C3.30 5.95 2.55 7.20 2.37 7.59ZM4.76 12.45C3.29 12.45 2.37 11.06 2.37 9.67C2.37 8.27 3.29 6.90 4.76 6.90C6.22 6.90 7.15 8.22 7.15 9.66C7.15 11.21 6.22 12.45 4.76 12.45ZM15.83 11.77C15.72 11.65 15.67 11.68 15.51 11.76C14.84 12.25 14 12.46 13.31 12.46C11.90 12.46 10.71 11.34 10.61 10.04L16.45 10.04C16.63 10.04 16.66 9.98 16.66 9.81C16.66 7.71 15.39 5.95 13.20 5.95C11.16 5.95 9.53 7.63 9.53 9.67C9.53 11.72 11.16 13.38 13.27 13.38C14.31 13.38 15.44 13.05 16.10 12.40C16.20 12.31 16.20 12.22 16.10 12.10ZM10.64 9.31C10.68 8.05 11.75 6.83 13.19 6.83C14.62 6.83 15.53 8.05 15.58 9.31ZM22.19 9.67C22.36 9.67 22.41 9.62 22.41 9.46L22.41 9.04C22.41 8.88 22.36 8.82 22.19 8.82L18.33 8.82C18.16 8.82 18.12 8.88 18.12 9.04L18.12 9.45C18.12 9.62 18.16 9.67 18.33 9.67ZM26.84 12.53C25.91 12.53 25.09 12.18 24.47 11.75C24.30 11.62 24.23 11.69 24.16 11.83L23.97 12.18C23.88 12.33 23.88 12.40 24.01 12.49C25.05 13.17 26.15 13.38 26.89 13.38C28.70 13.38 29.76 12.46 29.76 11.17C29.76 9.81 28.42 9.37 27.03 9.17C25.76 8.99 25.06 8.85 25.06 8.08C25.06 7.31 25.63 6.80 26.81 6.80C27.72 6.80 28.25 7.01 29.01 7.48C29.18 7.59 29.25 7.52 29.32 7.38L29.50 7.04C29.57 6.92 29.60 6.83 29.43 6.73C28.45 6.13 27.48 5.95 26.75 5.95C25.10 5.95 24.07 6.80 24.07 8.13C24.07 9.60 25.40 9.93 26.78 10.11C28.06 10.29 28.76 10.61 28.76 11.23C28.76 11.94 28.20 12.53 26.84 12.53ZM31.05 9.67C31.05 11.72 32.69 13.38 34.73 13.38C36.78 13.38 38.42 11.72 38.42 9.67C38.42 7.63 36.78 5.95 34.73 5.95C32.69 5.95 31.05 7.63 31.05 9.67ZM34.73 12.45C33.28 12.45 32.10 11.21 32.10 9.67C32.10 8.13 33.28 6.90 34.73 6.90C36.20 6.90 37.38 8.13 37.38 9.67C37.38 11.21 36.20 12.45 34.73 12.45ZM43.44 12.43C41.97 12.43 40.80 11.23 40.80 9.67C40.80 8.13 41.97 6.90 43.44 6.90C44.21 6.90 44.91 7.21 45.39 7.69C45.50 7.80 45.58 7.77 45.68 7.64L46.02 7.29C46.13 7.17 46.13 7.10 46.02 7C45.30 6.29 44.39 5.95 43.43 5.95C41.38 5.95 39.76 7.63 39.76 9.67C39.76 11.72 41.38 13.38 43.43 13.38C44.39 13.38 45.30 13.05 46.02 12.33C46.13 12.24 46.13 12.17 46.02 12.04L45.68 11.69C45.58 11.56 45.50 11.54 45.39 11.65C44.91 12.12 44.21 12.43 43.44 12.43ZM48.33 13.01C48.33 13.17 48.37 13.23 48.54 13.23L49.15 13.23C49.32 13.23 49.38 13.17 49.38 13.01L49.38 6.33C49.38 6.16 49.34 6.10 49.15 6.10L48.54 6.10C48.37 6.10 48.33 6.16 48.33 6.33ZM48.10 3.77C48.10 4.17 48.43 4.49 48.83 4.49C49.24 4.49 49.57 4.17 49.57 3.77C49.57 3.36 49.24 3.04 48.83 3.04C48.43 3.04 48.10 3.36 48.10 3.77ZM52.77 7.10C53.30 7 54.03 6.87 54.92 6.87C56.39 6.87 56.91 7.52 56.91 9.28C56.20 8.99 55.38 8.79 54.64 8.79C52.92 8.79 51.77 9.53 51.77 11.06C51.77 12.56 52.92 13.38 54.26 13.38C55.78 13.38 56.70 12.57 57.08 12.05L57.13 13.01C57.18 13.17 57.23 13.23 57.34 13.23L57.75 13.23C57.90 13.23 57.96 13.17 57.96 13.01L57.96 9.31C57.96 7 57.32 5.95 54.96 5.95C53.89 5.95 52.72 6.16 52.56 6.20C52.39 6.26 52.35 6.33 52.39 6.48L52.50 6.90C52.54 7.07 52.58 7.14 52.77 7.10ZM54.85 9.58C55.65 9.58 56.20 9.79 56.91 10.08L56.91 11.24C56.46 11.90 55.55 12.56 54.59 12.56C53.45 12.56 52.82 11.93 52.82 11.06C52.82 10.11 53.52 9.58 54.85 9.58ZM60.40 13.01C60.40 13.17 60.45 13.23 60.62 13.23L61.24 13.23C61.40 13.23 61.45 13.17 61.45 13.01L61.45 3.12C61.45 2.95 61.40 2.90 61.24 2.90L60.62 2.90C60.45 2.90 60.40 2.95 60.40 3.12ZM69.30 14.29C69.47 14.29 69.51 14.24 69.51 14.08L69.51 13.62C69.51 13.45 69.47 13.40 69.30 13.40L63.73 13.40C63.56 13.40 63.50 13.45 63.50 13.62L63.50 14.07C63.50 14.24 63.56 14.29 63.73 14.29Z"></path></g><defs data-v-423bf9ae=""><linearGradient data-v-423bf9ae="" gradientTransform="rotate(25)" id="c1f1949a-744a-4ca9-86f2-6e40e8c74a12" x1="0%" y1="0%" x2="100%" y2="0%"><stop data-v-423bf9ae="" offset="0%" style="stop-color: rgb(0, 21, 214); stop-opacity: 1;"></stop><stop data-v-423bf9ae="" offset="100%" style="stop-color: rgb(9, 137, 251); stop-opacity: 1;"></stop></linearGradient></defs><g data-v-423bf9ae="" id="f9d5ebea-fbfd-47db-9228-f69d0926b49c" transform="matrix(2.8125,0,0,2.8125,135,0)" stroke="none" fill="url(#c1f1949a-744a-4ca9-86f2-6e40e8c74a12)"><path d="M4.029 14.362L14.362 4.028l.707.707L4.736 15.07zM17.135 27.47L27.47 17.135l.707.707-10.333 10.333zM4.029 17.841l.707-.707 10.333 10.334-.707.707zM17.135 4.735l.708-.707L28.176 14.36l-.707.707z"></path><g><path d="M16 1.414l1.683 1.683L16 4.779l-1.683-1.683L16 1.414M16 0l-3.097 3.097L16 6.194l3.097-3.097L16 0zM16 27.221l1.683 1.683L16 30.586l-1.683-1.683L16 27.221m0-1.415l-3.097 3.097L16 32l3.097-3.097L16 25.806zM3.097 14.317L4.779 16l-1.683 1.683L1.414 16l1.683-1.683m0-1.414L0 16l3.097 3.097L6.194 16l-3.097-3.097zM28.903 14.317L30.586 16l-1.683 1.683L27.221 16l1.682-1.683m0-1.414L25.806 16l3.097 3.097L32 16l-3.097-3.097z"></path></g></g><!----></svg>